<?xml version="1.0" encoding="utf-8"?>
<!-- Generator: Adobe Illustrator 25.4.1, SVG Export Plug-In . SVG Version: 6.00 Build 0)  -->
<svg version="1.1" id="Layer_1" xmlns="http://www.w3.org/2000/svg" xmlns:xlink="http://www.w3.org/1999/xlink" x="0px" y="0px"
	 viewBox="0 0 3157 1474" style="enable-background:new 0 0 3157 1474;" xml:space="preserve">
<style type="text/css">
	.st0{fill:#E7E0CF;fill-opacity:0.8;stroke:#000000;}
</style>
<path class="st0" d="M2050.3,730.3c0,0.2,0,0.4,0,0.5h-388.9V356c183.6,0.2,280.8,93.9,332.2,187.7c25.7,46.9,39.9,93.9,47.7,129.1
	c3.9,17.6,6.2,32.3,7.5,42.5c0.7,5.1,1.1,9.2,1.3,11.9C2050.2,728.6,2050.3,729.6,2050.3,730.3z"/>
<path class="st0" d="M1661.4,731.9h388.9c0,0.1,0,0.3,0,0.5c-0.1,0.7-0.1,1.8-0.2,3.1c-0.2,2.7-0.7,6.8-1.3,11.9
	c-1.3,10.3-3.6,24.9-7.5,42.5c-7.8,35.2-22,82.1-47.7,129.1c-51.3,93.7-148.5,187.5-332.2,187.7V731.9z"/>
<path class="st0" d="M2260.8,731.9c-0.1-0.6-0.1-1-0.1-1.4h168.4v168.3c-79.5-0.2-121.5-42.3-143.8-84.4
	c-11.2-21.1-17.3-42.2-20.7-58.1c-1.7-7.9-2.7-14.5-3.2-19.1C2261.1,734.9,2260.9,733.1,2260.8,731.9z"/>
<path class="st0" d="M2427.8,561.5c0.6-0.1,1-0.1,1.4-0.1v168.3h-168.5c0.2-79.4,42.3-121.5,84.5-143.7
	c21.1-11.1,42.3-17.3,58.1-20.7c7.9-1.7,14.5-2.7,19.1-3.2C2424.7,561.8,2426.5,561.6,2427.8,561.5z"/>
<path class="st0" d="M2431.5,900.1c-0.6,0.1-1,0.1-1.4,0.1V731.9h168.4c-0.2,79.4-42.3,121.5-84.5,143.7
	c-21.1,11.1-42.3,17.3-58.1,20.7c-7.9,1.7-14.5,2.7-19.1,3.2C2434.5,899.8,2432.7,899.9,2431.5,900.1z"/>
<path class="st0" d="M3156.4,1080.6c0,0.6,0.1,1,0.1,1.4h-168.4V913.6c79.5,0.2,121.6,42.3,143.8,84.4
	c11.2,21.1,17.3,42.2,20.7,58.1c1.7,7.9,2.7,14.5,3.2,19.1C3156.1,1077.5,3156.2,1079.3,3156.4,1080.6z"/>
<path class="st0" d="M2985.7,913.7c0.6-0.1,1.1-0.1,1.4-0.1v168.3h-168.4c0.2-79.4,42.3-121.5,84.4-143.7
	c21.1-11.1,42.3-17.3,58.1-20.7c7.9-1.7,14.5-2.7,19.2-3.2C2982.6,914,2984.5,913.8,2985.7,913.7z"/>
<path class="st0" d="M2818.8,1084.3c-0.1-0.6-0.1-1-0.1-1.4h168.4v168.3c-79.5-0.2-121.5-42.3-143.8-84.4
	c-11.1-21.1-17.3-42.2-20.7-58.1c-1.7-7.9-2.7-14.5-3.2-19.1C2819,1087.3,2818.9,1085.5,2818.8,1084.3z"/>
<path class="st0" d="M2524.1,1081.4c0,0.2,0,0.4,0,0.5h-94v-94c44.3,0.2,67.8,23.7,80.2,47.2c6.2,11.8,9.7,23.7,11.6,32.5
	c0.9,4.4,1.5,8.1,1.8,10.7C2523.9,1079.7,2524,1080.7,2524.1,1081.4z"/>
<path class="st0" d="M2335.1,1083.4c0-0.2,0-0.4,0-0.5h94v94c-44.3-0.2-67.8-23.7-80.2-47.2c-6.2-11.8-9.7-23.6-11.6-32.5
	c-0.9-4.4-1.5-8.1-1.8-10.7C2335.3,1085.2,2335.2,1084.1,2335.1,1083.4z"/>
<path class="st0" d="M2430.6,1176.8c-0.2,0-0.4,0-0.5,0v-94h94c-0.2,44.3-23.7,67.8-47.3,80.2c-11.8,6.2-23.7,9.7-32.5,11.6
	c-4.4,0.9-8.1,1.5-10.7,1.8C2432.4,1176.7,2431.3,1176.8,2430.6,1176.8z"/>
<path class="st0" d="M1660.4,730.9h-388.9c0-0.1,0-0.3,0-0.5c0-0.7,0.1-1.8,0.3-3.1c0.2-2.7,0.7-6.8,1.3-11.9
	c1.3-10.3,3.6-24.9,7.5-42.5c7.8-35.2,22-82.1,47.7-129.1c51.3-93.7,148.5-187.5,332.2-187.7L1660.4,730.9z"/>
<path class="st0" d="M618.7,1379.9c-172.5,0-338-68.2-460.4-189.7C36.1,1068.8-33.2,904.1-34.5,731.9h1306.4
	c-1.2,172.2-70.5,337-192.8,458.4C956.8,1311.7,791.2,1379.9,618.7,1379.9v0.5V1379.9z"/>
<path class="st0" d="M618.7,83.4c172.5,0,338,68.2,460.4,189.7c122.3,121.4,191.6,286.1,192.8,458.3H-34.5
	c1.2-172.2,70.5-337,192.8-458.4C280.6,151.6,446.2,83.4,618.7,83.4z"/>
<path class="st0" d="M2598.1,730.9c0.2-12.9,5.4-25.1,14.6-34.2c9.3-9.2,21.8-14.4,34.8-14.3v-0.5v0.5c13.1,0,25.6,5.2,34.8,14.4
	c9.1,9.1,14.4,21.4,14.6,34.2H2598.1z"/>
<path class="st0" d="M2682.4,766.1c-9.3,9.2-21.8,14.4-34.8,14.4c-13.1,0-25.6-5.2-34.8-14.4c-9.1-9.1-14.4-21.4-14.6-34.2h98.8
	C2696.7,744.7,2691.5,757,2682.4,766.1z"/>
<path class="st0" d="M2527.9,1081.9c0.6-23.4,22.3-42.4,49.4-42.4c27.1,0,48.9,19,49.4,42.4H2527.9z"/>
<path class="st0" d="M2817.6,1082.9c-0.6,45.5-43,82.3-95.2,82.3c-52.4,0-94.7-36.8-95.3-82.3H2817.6z"/>
<path class="st0" d="M1480.6,1292.3c0-47.9,19-93.8,52.8-127.8c33.7-33.8,79.3-53,127.1-53.4v362.4c-47.7-0.4-93.4-19.6-127.1-53.4
	C1499.6,1386.1,1480.6,1340.2,1480.6,1292.3z"/>
<path class="st0" d="M1788.5,1420.1c-33.7,33.8-79.3,53-127.1,53.4v-362.7c47.8,0.4,93.5,19.7,127.2,53.6c33.8,34,52.7,80,52.6,128
	l0.5,0h-0.5C1841.2,1340.2,1822.3,1386.1,1788.5,1420.1z"/>
<path class="st0" d="M2152.7,1262.6L2152.7,1262.6c-47.9,0-93.9-18.9-127.8-52.7c-33.9-33.6-53.1-79.2-53.5-126.9h363
	c-0.4,47.8-19.7,93.4-53.6,127.1C2246.7,1243.7,2200.7,1262.7,2152.7,1262.6z"/>
<path class="st0" d="M2152.7,902.2c47.9,0,93.9,19,127.9,52.7c33.9,33.6,53.1,79.3,53.5,127h-362.8c0.4-47.7,19.6-93.4,53.5-127
	C2058.8,921.1,2104.8,902.2,2152.7,902.2v-0.5V902.2z"/>
<path class="st0" d="M2367.6,410.2c16.3-16.4,38.4-25.8,61.5-26.1v176.6c-23.2-0.3-45.3-9.7-61.6-26.1
	c-16.4-16.5-25.7-38.9-25.7-62.2C2341.9,449.1,2351.1,426.8,2367.6,410.2z"/>
<path class="st0" d="M2399.2,913.2c7.9-8,18.7-12.5,29.9-12.7v86.5c-11.3-0.2-22-4.8-30-12.8c-8.1-8.1-12.6-19.1-12.6-30.5
	C2386.6,932.2,2391.1,921.2,2399.2,913.2z"/>
<path class="st0" d="M2460.1,974.1c-7.9,8-18.7,12.6-30,12.8v-86.5c11.2,0.2,22,4.8,29.9,12.7c8.1,8.1,12.6,19,12.6,30.5
	C2472.7,955.1,2468.1,966,2460.1,974.1z"/>
<path class="st0" d="M2399.2,1189.9c7.9-8,18.7-12.5,29.9-12.7v86.5c-11.3-0.2-22-4.8-30-12.8c-8.1-8.1-12.6-19.1-12.6-30.5
	C2386.6,1208.9,2391.1,1198,2399.2,1189.9z"/>
<path class="st0" d="M2491.8,534.7c-16.4,16.4-38.5,25.8-61.6,26.1V384.2c23.1,0.3,45.3,9.6,61.6,26c16.5,16.5,25.7,38.9,25.7,62.2
	C2517.5,495.7,2508.2,518.1,2491.8,534.7z"/>
<path class="st0" d="M1788.5,300.8c-33.7,33.8-79.3,53-127.1,53.4V-8.5c47.8,0.4,93.5,19.6,127.2,53.5c33.8,34,52.7,80,52.6,128
	l0.5,0h-0.5C1841.2,220.9,1822.3,266.8,1788.5,300.8z"/>
<path class="st0" d="M1479.6,173c0-47.9,19-93.8,52.8-127.8c33.7-33.8,79.3-53,127.1-53.4v362.4c-47.7-0.4-93.4-19.6-127.1-53.4
	C1498.5,266.8,1479.6,220.9,1479.6,173z"/>
<path class="st0" d="M2083.8,802.5c-19.2-19.1-30.1-44.9-30.5-72h206.3c-0.3,27-11.2,52.9-30.4,72c-19.3,19.2-45.5,30-72.7,30
	C2129.3,832.4,2103.1,821.6,2083.8,802.5z"/>
<path class="st0" d="M2156.7,628.1c27.2,0,53.2,10.7,72.5,29.9c19.2,19,30,44.8,30.3,71.7h-205.6c0.3-27,11.2-52.7,30.3-71.7
	C2103.5,638.9,2129.5,628.1,2156.7,628.1z"/>
</svg>
