<svg width="9" height="6" viewBox="0 0 9 6" fill="none" xmlns="http://www.w3.org/2000/svg">
<path fill-rule="evenodd" clip-rule="evenodd" d="M4.65264 1.20167C5.82189 1.20172 6.94643 1.651 7.79384 2.45664C7.85765 2.51884 7.95965 2.51805 8.0225 2.45488L8.63248 1.83927C8.6643 1.80723 8.68204 1.76383 8.68178 1.71867C8.68152 1.67351 8.66327 1.63032 8.63107 1.59865C6.4069 -0.532884 2.89802 -0.532884 0.673847 1.59865C0.641628 1.6303 0.623348 1.67347 0.623051 1.71863C0.622753 1.76379 0.640464 1.80721 0.672264 1.83927L1.28242 2.45488C1.34523 2.51815 1.44731 2.51894 1.51108 2.45664C2.35859 1.65095 3.48327 1.20167 4.65264 1.20167ZM4.65264 3.20452C5.29506 3.20448 5.91457 3.44327 6.39077 3.87448C6.45518 3.93568 6.55664 3.93436 6.61943 3.87149L7.22871 3.25588C7.26079 3.22359 7.2786 3.17979 7.27813 3.13427C7.27767 3.08875 7.25898 3.04531 7.22625 3.01368C5.77611 1.66476 3.53039 1.66476 2.08026 3.01368C2.0475 3.04531 2.02881 3.08877 2.02838 3.1343C2.02795 3.17984 2.04582 3.22364 2.07797 3.25588L2.68707 3.87149C2.74986 3.93436 2.85132 3.93568 2.91573 3.87448C3.39162 3.44355 4.01063 3.20479 4.65264 3.20452ZM5.87313 4.55209C5.87406 4.59774 5.85611 4.64174 5.82353 4.67372L4.7696 5.73733C4.73871 5.76858 4.69659 5.78618 4.65264 5.78618C4.60869 5.78618 4.56656 5.76858 4.53567 5.73733L3.48157 4.67372C3.449 4.64172 3.43109 4.5977 3.43205 4.55205C3.43302 4.5064 3.45278 4.46318 3.48667 4.43258C4.15974 3.86329 5.14553 3.86329 5.8186 4.43258C5.85247 4.4632 5.87219 4.50644 5.87313 4.55209Z" fill="black"/>
</svg>
